<svg xmlns="http://www.w3.org/2000/svg" xmlns:xlink="http://www.w3.org/1999/xlink" width="500" zoomAndPan="magnify" viewBox="0 0 375 374.999991" height="500" preserveAspectRatio="xMidYMid meet" version="1.0"><defs><clipPath id="79ecad5423"><path d="M 70.929688 70.929688 L 304.179688 70.929688 L 304.179688 304.179688 L 70.929688 304.179688 Z M 70.929688 70.929688 " clip-rule="nonzero"/></clipPath></defs><rect x="-37.5" width="450" fill="#ffffff" y="-37.499999" height="449.999989" fill-opacity="1"/><rect x="-37.5" width="450" fill="#ffffff" y="-37.499999" height="449.999989" fill-opacity="1"/><g clip-path="url(#79ecad5423)"><path fill="#000000" d="M 291.285156 174.660156 L 200.449219 174.660156 L 200.449219 83.824219 C 200.449219 76.6875 194.691406 70.929688 187.554688 70.929688 C 180.417969 70.929688 174.660156 76.6875 174.660156 83.824219 L 174.660156 174.660156 L 83.824219 174.660156 C 76.6875 174.660156 70.929688 180.417969 70.929688 187.554688 C 70.929688 194.691406 76.6875 200.449219 83.824219 200.449219 L 174.660156 200.449219 L 174.660156 291.285156 C 174.660156 298.421875 180.417969 304.179688 187.554688 304.179688 C 194.691406 304.179688 200.449219 298.421875 200.449219 291.285156 L 200.449219 200.449219 L 291.285156 200.449219 C 298.421875 200.449219 304.179688 194.691406 304.179688 187.554688 C 304.179688 180.417969 298.421875 174.660156 291.285156 174.660156 Z M 291.285156 174.660156 " fill-opacity="1" fill-rule="nonzero"/></g></svg>