<svg xmlns="http://www.w3.org/2000/svg" xmlns:xlink="http://www.w3.org/1999/xlink" width="500" zoomAndPan="magnify" viewBox="0 0 375 374.999991" height="500" preserveAspectRatio="xMidYMid meet" version="1.0"><defs><clipPath id="bb4aa4f7ed"><path d="M 27.539062 53.132812 L 347.789062 53.132812 L 347.789062 321.632812 L 27.539062 321.632812 Z M 27.539062 53.132812 " clip-rule="nonzero"/></clipPath></defs><rect x="-37.5" width="450" fill="#ffffff" y="-37.499999" height="449.999989" fill-opacity="1"/><rect x="-37.5" width="450" fill="#ffffff" y="-37.499999" height="449.999989" fill-opacity="1"/><g clip-path="url(#bb4aa4f7ed)"><path fill="#000000" d="M 212.023438 314.578125 L 212.023438 249.246094 L 155.636719 249.246094 L 155.636719 314.570312 C 155.636719 315.035156 155.589844 315.496094 155.5 315.953125 C 155.410156 316.410156 155.277344 316.851562 155.097656 317.28125 C 154.921875 317.710938 154.703125 318.117188 154.445312 318.503906 C 154.1875 318.890625 153.894531 319.25 153.5625 319.578125 C 153.234375 319.90625 152.878906 320.203125 152.492188 320.460938 C 152.105469 320.71875 151.695312 320.9375 151.265625 321.117188 C 150.835938 321.296875 150.394531 321.433594 149.9375 321.523438 C 149.480469 321.617188 149.019531 321.664062 148.554688 321.664062 L 74.058594 321.664062 C 73.59375 321.664062 73.132812 321.617188 72.675781 321.527344 C 72.21875 321.4375 71.773438 321.300781 71.34375 321.125 C 70.914062 320.945312 70.503906 320.726562 70.117188 320.46875 C 69.726562 320.210938 69.371094 319.917969 69.039062 319.585938 C 68.710938 319.257812 68.417969 318.902344 68.15625 318.515625 C 67.898438 318.128906 67.679688 317.71875 67.5 317.289062 C 67.324219 316.859375 67.1875 316.417969 67.097656 315.960938 C 67.003906 315.503906 66.960938 315.042969 66.957031 314.578125 L 66.957031 185.992188 C 66.957031 185.648438 66.992188 185.308594 67.058594 184.972656 C 67.128906 184.632812 67.226562 184.308594 67.359375 183.988281 C 67.492188 183.671875 67.652344 183.371094 67.84375 183.082031 C 68.035156 182.796875 68.253906 182.53125 68.496094 182.289062 C 68.738281 182.046875 69.003906 181.828125 69.292969 181.636719 C 69.578125 181.445312 69.878906 181.285156 70.199219 181.152344 C 70.515625 181.023438 70.84375 180.921875 71.183594 180.855469 C 71.523438 180.789062 71.863281 180.753906 72.207031 180.753906 C 72.550781 180.753906 72.894531 180.789062 73.230469 180.855469 C 73.570312 180.921875 73.898438 181.023438 74.214844 181.152344 C 74.535156 181.285156 74.835938 181.445312 75.125 181.636719 C 75.410156 181.828125 75.675781 182.046875 75.917969 182.289062 C 76.164062 182.53125 76.378906 182.796875 76.570312 183.082031 C 76.761719 183.371094 76.925781 183.671875 77.054688 183.988281 C 77.1875 184.308594 77.289062 184.632812 77.355469 184.972656 C 77.421875 185.308594 77.457031 185.648438 77.457031 185.992188 L 77.457031 311.179688 L 145.140625 311.179688 L 145.140625 245.855469 C 145.140625 245.390625 145.183594 244.929688 145.277344 244.472656 C 145.367188 244.019531 145.503906 243.574219 145.679688 243.144531 C 145.859375 242.714844 146.078125 242.308594 146.335938 241.921875 C 146.597656 241.535156 146.890625 241.175781 147.21875 240.847656 C 147.550781 240.519531 147.910156 240.226562 148.296875 239.964844 C 148.683594 239.707031 149.09375 239.488281 149.523438 239.3125 C 149.953125 239.132812 150.398438 238.996094 150.855469 238.90625 C 151.3125 238.816406 151.773438 238.769531 152.238281 238.769531 L 215.453125 238.769531 C 215.917969 238.769531 216.378906 238.816406 216.835938 238.90625 C 217.292969 238.996094 217.738281 239.132812 218.167969 239.3125 C 218.601562 239.488281 219.007812 239.707031 219.394531 239.964844 C 219.785156 240.226562 220.140625 240.519531 220.472656 240.847656 C 220.800781 241.175781 221.09375 241.535156 221.355469 241.921875 C 221.613281 242.308594 221.832031 242.714844 222.011719 243.144531 C 222.191406 243.574219 222.324219 244.019531 222.414062 244.472656 C 222.507812 244.929688 222.554688 245.390625 222.554688 245.855469 L 222.554688 311.179688 L 290.234375 311.179688 L 290.234375 185.992188 C 290.234375 185.648438 290.269531 185.308594 290.335938 184.972656 C 290.40625 184.632812 290.503906 184.308594 290.636719 183.988281 C 290.769531 183.671875 290.929688 183.371094 291.121094 183.082031 C 291.3125 182.796875 291.53125 182.53125 291.773438 182.289062 C 292.015625 182.046875 292.28125 181.828125 292.570312 181.636719 C 292.855469 181.445312 293.15625 181.285156 293.476562 181.152344 C 293.792969 181.023438 294.121094 180.921875 294.460938 180.855469 C 294.800781 180.789062 295.140625 180.753906 295.484375 180.753906 C 295.828125 180.753906 296.171875 180.789062 296.507812 180.855469 C 296.847656 180.921875 297.175781 181.023438 297.492188 181.152344 C 297.8125 181.285156 298.113281 181.445312 298.402344 181.636719 C 298.6875 181.828125 298.953125 182.046875 299.195312 182.289062 C 299.441406 182.53125 299.65625 182.796875 299.847656 183.082031 C 300.039062 183.371094 300.203125 183.671875 300.332031 183.988281 C 300.464844 184.308594 300.566406 184.632812 300.632812 184.972656 C 300.699219 185.308594 300.734375 185.648438 300.734375 185.992188 L 300.734375 314.578125 C 300.734375 315.042969 300.6875 315.503906 300.597656 315.960938 C 300.503906 316.417969 300.371094 316.859375 300.191406 317.289062 C 300.011719 317.71875 299.792969 318.128906 299.535156 318.515625 C 299.277344 318.902344 298.980469 319.257812 298.652344 319.585938 C 298.324219 319.917969 297.964844 320.210938 297.578125 320.46875 C 297.1875 320.726562 296.78125 320.945312 296.347656 321.125 C 295.917969 321.300781 295.476562 321.4375 295.019531 321.527344 C 294.5625 321.617188 294.097656 321.664062 293.632812 321.664062 L 219.128906 321.664062 C 218.664062 321.664062 218.203125 321.621094 217.746094 321.527344 C 217.289062 321.4375 216.84375 321.304688 216.414062 321.125 C 215.980469 320.949219 215.574219 320.730469 215.183594 320.472656 C 214.796875 320.210938 214.4375 319.917969 214.109375 319.589844 C 213.777344 319.261719 213.484375 318.902344 213.222656 318.515625 C 212.964844 318.128906 212.746094 317.71875 212.566406 317.289062 C 212.386719 316.859375 212.253906 316.417969 212.160156 315.960938 C 212.070312 315.503906 212.023438 315.042969 212.023438 314.578125 Z M 338.519531 191.09375 C 338.777344 191.351562 339.058594 191.578125 339.367188 191.777344 C 339.671875 191.976562 339.992188 192.140625 340.332031 192.273438 C 340.671875 192.40625 341.023438 192.5 341.382812 192.5625 C 341.742188 192.621094 342.105469 192.640625 342.46875 192.625 C 342.832031 192.609375 343.191406 192.554688 343.546875 192.464844 C 343.898438 192.375 344.238281 192.246094 344.566406 192.085938 C 344.894531 191.925781 345.199219 191.730469 345.484375 191.503906 C 345.773438 191.28125 346.03125 191.027344 346.265625 190.75 C 346.5 190.46875 346.703125 190.167969 346.871094 189.847656 C 347.042969 189.523438 347.179688 189.1875 347.28125 188.839844 C 347.382812 188.488281 347.445312 188.132812 347.472656 187.769531 C 347.496094 187.40625 347.484375 187.046875 347.4375 186.683594 C 347.386719 186.324219 347.300781 185.972656 347.179688 185.628906 C 347.054688 185.285156 346.898438 184.960938 346.707031 184.648438 C 346.515625 184.339844 346.296875 184.050781 346.046875 183.789062 C 345.792969 183.523438 345.519531 183.289062 345.21875 183.082031 L 192.058594 55.355469 C 191.742188 55.09375 191.402344 54.859375 191.046875 54.652344 C 190.6875 54.449219 190.316406 54.273438 189.925781 54.132812 C 189.539062 53.992188 189.140625 53.886719 188.734375 53.816406 C 188.328125 53.746094 187.917969 53.707031 187.503906 53.707031 C 187.09375 53.707031 186.683594 53.746094 186.277344 53.816406 C 185.867188 53.886719 185.472656 53.992188 185.082031 54.132812 C 184.695312 54.273438 184.324219 54.449219 183.964844 54.652344 C 183.605469 54.859375 183.269531 55.09375 182.953125 55.355469 L 29.789062 183.082031 C 29.527344 183.300781 29.285156 183.546875 29.070312 183.8125 C 28.851562 184.082031 28.664062 184.367188 28.503906 184.671875 C 28.34375 184.976562 28.214844 185.296875 28.121094 185.625 C 28.023438 185.957031 27.957031 186.292969 27.925781 186.632812 C 27.894531 186.976562 27.898438 187.320312 27.9375 187.660156 C 27.972656 188.003906 28.042969 188.339844 28.144531 188.667969 C 28.25 188.996094 28.382812 189.308594 28.546875 189.613281 C 28.710938 189.914062 28.90625 190.199219 29.125 190.460938 C 29.347656 190.726562 29.59375 190.964844 29.859375 191.179688 C 30.128906 191.398438 30.414062 191.585938 30.722656 191.746094 C 31.027344 191.902344 31.34375 192.03125 31.675781 192.128906 C 32.003906 192.226562 32.34375 192.289062 32.6875 192.320312 C 33.03125 192.351562 33.371094 192.347656 33.714844 192.3125 C 34.058594 192.277344 34.394531 192.207031 34.722656 192.101562 C 35.050781 192 35.367188 191.867188 35.671875 191.703125 C 35.972656 191.539062 36.257812 191.34375 36.519531 191.125 L 187.503906 65.210938 Z M 237.6875 70.824219 L 277.445312 70.824219 L 277.445312 110.511719 C 277.445312 110.855469 277.480469 111.195312 277.546875 111.53125 C 277.613281 111.871094 277.714844 112.199219 277.847656 112.515625 C 277.976562 112.832031 278.140625 113.136719 278.332031 113.421875 C 278.523438 113.707031 278.742188 113.972656 278.984375 114.214844 C 279.226562 114.457031 279.492188 114.675781 279.78125 114.867188 C 280.066406 115.058594 280.367188 115.21875 280.6875 115.351562 C 281.003906 115.480469 281.332031 115.582031 281.671875 115.648438 C 282.007812 115.714844 282.351562 115.75 282.695312 115.75 C 283.039062 115.75 283.382812 115.714844 283.71875 115.648438 C 284.058594 115.582031 284.386719 115.480469 284.703125 115.351562 C 285.023438 115.21875 285.324219 115.058594 285.609375 114.867188 C 285.898438 114.675781 286.164062 114.457031 286.40625 114.214844 C 286.648438 113.972656 286.867188 113.707031 287.058594 113.421875 C 287.25 113.136719 287.414062 112.832031 287.542969 112.515625 C 287.675781 112.199219 287.777344 111.871094 287.84375 111.53125 C 287.910156 111.195312 287.945312 110.855469 287.945312 110.511719 L 287.945312 67.433594 C 287.945312 66.96875 287.898438 66.507812 287.804688 66.050781 C 287.714844 65.597656 287.582031 65.152344 287.402344 64.722656 C 287.222656 64.292969 287.003906 63.886719 286.746094 63.5 C 286.488281 63.113281 286.191406 62.753906 285.863281 62.425781 C 285.53125 62.097656 285.175781 61.800781 284.785156 61.542969 C 284.398438 61.285156 283.992188 61.066406 283.558594 60.890625 C 283.128906 60.710938 282.683594 60.574219 282.226562 60.484375 C 281.769531 60.394531 281.308594 60.347656 280.84375 60.347656 L 237.6875 60.347656 C 237.339844 60.347656 237 60.382812 236.660156 60.449219 C 236.324219 60.515625 235.996094 60.613281 235.675781 60.746094 C 235.359375 60.878906 235.054688 61.039062 234.769531 61.230469 C 234.484375 61.421875 234.21875 61.636719 233.972656 61.882812 C 233.730469 62.125 233.511719 62.390625 233.320312 62.675781 C 233.128906 62.960938 232.96875 63.261719 232.835938 63.582031 C 232.703125 63.898438 232.605469 64.226562 232.535156 64.5625 C 232.46875 64.902344 232.4375 65.242188 232.4375 65.585938 C 232.4375 65.929688 232.46875 66.269531 232.535156 66.609375 C 232.605469 66.945312 232.703125 67.273438 232.835938 67.589844 C 232.96875 67.910156 233.128906 68.210938 233.320312 68.496094 C 233.511719 68.785156 233.730469 69.046875 233.972656 69.292969 C 234.21875 69.535156 234.484375 69.75 234.769531 69.941406 C 235.054688 70.132812 235.359375 70.296875 235.675781 70.425781 C 235.996094 70.558594 236.324219 70.65625 236.660156 70.726562 C 237 70.792969 237.339844 70.824219 237.6875 70.824219 Z M 237.6875 70.824219 " fill-opacity="1" fill-rule="nonzero"/></g></svg>