<svg xmlns="http://www.w3.org/2000/svg" xmlns:xlink="http://www.w3.org/1999/xlink" width="500" zoomAndPan="magnify" viewBox="0 0 375 374.999991" height="500" preserveAspectRatio="xMidYMid meet" version="1.0"><defs><clipPath id="ad0ee15cf1"><path d="M 56.757812 25.339844 L 318.507812 25.339844 L 318.507812 349.339844 L 56.757812 349.339844 Z M 56.757812 25.339844 " clip-rule="nonzero"/></clipPath></defs><rect x="-37.5" width="450" fill="#ffffff" y="-37.499999" height="449.999989" fill-opacity="1"/><rect x="-37.5" width="450" fill="#ffffff" y="-37.499999" height="449.999989" fill-opacity="1"/><g clip-path="url(#ad0ee15cf1)"><path fill="#000000" d="M 300.183594 88.074219 L 297.566406 88.074219 L 297.566406 72.398438 C 297.566406 72.054688 297.535156 71.714844 297.46875 71.378906 C 297.398438 71.042969 297.300781 70.71875 297.167969 70.398438 C 297.039062 70.082031 296.875 69.78125 296.683594 69.496094 C 296.496094 69.210938 296.277344 68.949219 296.035156 68.707031 C 295.792969 68.460938 295.527344 68.246094 295.242188 68.054688 C 294.953125 67.863281 294.652344 67.703125 294.335938 67.574219 C 294.019531 67.441406 293.691406 67.34375 293.355469 67.277344 C 293.015625 67.207031 292.675781 67.175781 292.332031 67.175781 L 276.628906 67.175781 L 276.628906 51.5 C 276.628906 51.160156 276.59375 50.820312 276.527344 50.480469 C 276.460938 50.144531 276.359375 49.820312 276.230469 49.503906 C 276.097656 49.183594 275.9375 48.882812 275.746094 48.597656 C 275.554688 48.3125 275.335938 48.050781 275.09375 47.808594 C 274.851562 47.566406 274.585938 47.347656 274.300781 47.15625 C 274.015625 46.96875 273.714844 46.804688 273.394531 46.675781 C 273.078125 46.542969 272.75 46.445312 272.414062 46.378906 C 272.078125 46.308594 271.734375 46.277344 271.390625 46.277344 L 255.6875 46.277344 L 255.6875 30.601562 C 255.6875 30.261719 255.652344 29.921875 255.585938 29.585938 C 255.519531 29.246094 255.421875 28.921875 255.289062 28.605469 C 255.15625 28.289062 254.996094 27.984375 254.804688 27.699219 C 254.613281 27.414062 254.398438 27.152344 254.152344 26.910156 C 253.910156 26.667969 253.648438 26.449219 253.359375 26.257812 C 253.074219 26.070312 252.773438 25.90625 252.457031 25.777344 C 252.136719 25.644531 251.8125 25.546875 251.472656 25.480469 C 251.136719 25.414062 250.796875 25.378906 250.453125 25.378906 L 124.8125 25.378906 C 124.46875 25.378906 124.128906 25.414062 123.792969 25.480469 C 123.453125 25.546875 123.125 25.644531 122.808594 25.777344 C 122.492188 25.90625 122.191406 26.070312 121.902344 26.257812 C 121.617188 26.449219 121.355469 26.667969 121.109375 26.910156 C 120.867188 27.152344 120.652344 27.414062 120.460938 27.699219 C 120.269531 27.984375 120.109375 28.289062 119.976562 28.605469 C 119.84375 28.921875 119.746094 29.246094 119.679688 29.585938 C 119.609375 29.921875 119.578125 30.261719 119.578125 30.601562 L 119.578125 46.277344 L 103.871094 46.277344 C 103.527344 46.277344 103.1875 46.308594 102.851562 46.378906 C 102.515625 46.445312 102.1875 46.542969 101.867188 46.675781 C 101.550781 46.804688 101.25 46.96875 100.964844 47.15625 C 100.679688 47.347656 100.414062 47.566406 100.171875 47.808594 C 99.925781 48.050781 99.710938 48.3125 99.519531 48.597656 C 99.328125 48.882812 99.167969 49.183594 99.035156 49.503906 C 98.90625 49.820312 98.804688 50.144531 98.738281 50.480469 C 98.671875 50.820312 98.636719 51.160156 98.636719 51.5 L 98.636719 67.175781 L 82.933594 67.175781 C 82.589844 67.175781 82.25 67.207031 81.910156 67.277344 C 81.574219 67.34375 81.246094 67.441406 80.929688 67.574219 C 80.613281 67.703125 80.308594 67.863281 80.023438 68.054688 C 79.738281 68.246094 79.472656 68.460938 79.230469 68.707031 C 78.988281 68.949219 78.769531 69.210938 78.578125 69.496094 C 78.390625 69.78125 78.226562 70.082031 78.097656 70.398438 C 77.964844 70.71875 77.863281 71.042969 77.796875 71.378906 C 77.730469 71.714844 77.699219 72.054688 77.699219 72.398438 L 77.699219 88.074219 L 75.078125 88.074219 C 74.480469 88.074219 73.882812 88.105469 73.285156 88.164062 C 72.6875 88.222656 72.09375 88.308594 71.507812 88.429688 C 70.917969 88.546875 70.335938 88.691406 69.761719 88.863281 C 69.191406 89.039062 68.625 89.242188 68.070312 89.46875 C 67.515625 89.699219 66.976562 89.957031 66.445312 90.238281 C 65.917969 90.519531 65.402344 90.828125 64.90625 91.160156 C 64.40625 91.492188 63.925781 91.851562 63.460938 92.230469 C 63 92.609375 62.554688 93.011719 62.128906 93.433594 C 61.707031 93.859375 61.304688 94.300781 60.921875 94.765625 C 60.542969 95.226562 60.183594 95.707031 59.851562 96.203125 C 59.519531 96.703125 59.210938 97.214844 58.925781 97.742188 C 58.644531 98.269531 58.386719 98.8125 58.15625 99.363281 C 57.925781 99.917969 57.726562 100.480469 57.550781 101.054688 C 57.375 101.625 57.230469 102.207031 57.113281 102.792969 C 56.996094 103.378906 56.90625 103.972656 56.847656 104.566406 C 56.789062 105.164062 56.757812 105.761719 56.757812 106.359375 L 56.757812 331.011719 C 56.757812 331.609375 56.789062 332.207031 56.847656 332.804688 C 56.90625 333.398438 56.996094 333.992188 57.113281 334.578125 C 57.230469 335.164062 57.375 335.746094 57.550781 336.320312 C 57.726562 336.890625 57.925781 337.453125 58.15625 338.007812 C 58.386719 338.558594 58.644531 339.101562 58.925781 339.628906 C 59.210938 340.15625 59.519531 340.667969 59.851562 341.167969 C 60.183594 341.664062 60.542969 342.144531 60.921875 342.609375 C 61.304688 343.070312 61.707031 343.511719 62.128906 343.9375 C 62.554688 344.359375 63 344.761719 63.460938 345.140625 C 63.925781 345.519531 64.40625 345.878906 64.90625 346.210938 C 65.402344 346.542969 65.917969 346.851562 66.445312 347.132812 C 66.976562 347.414062 67.515625 347.671875 68.070312 347.902344 C 68.625 348.128906 69.191406 348.332031 69.761719 348.507812 C 70.335938 348.679688 70.917969 348.828125 71.507812 348.945312 C 72.09375 349.0625 72.6875 349.148438 73.285156 349.207031 C 73.882812 349.269531 74.480469 349.296875 75.078125 349.296875 L 300.183594 349.296875 C 300.785156 349.296875 301.382812 349.269531 301.980469 349.207031 C 302.578125 349.148438 303.167969 349.0625 303.757812 348.945312 C 304.347656 348.828125 304.925781 348.679688 305.5 348.507812 C 306.074219 348.332031 306.640625 348.128906 307.195312 347.902344 C 307.746094 347.671875 308.289062 347.414062 308.816406 347.132812 C 309.347656 346.851562 309.859375 346.542969 310.359375 346.210938 C 310.859375 345.878906 311.339844 345.519531 311.804688 345.140625 C 312.265625 344.761719 312.710938 344.359375 313.136719 343.9375 C 313.558594 343.511719 313.960938 343.070312 314.34375 342.609375 C 314.722656 342.144531 315.078125 341.664062 315.414062 341.167969 C 315.746094 340.667969 316.054688 340.15625 316.339844 339.628906 C 316.621094 339.101562 316.878906 338.558594 317.105469 338.007812 C 317.335938 337.453125 317.539062 336.890625 317.714844 336.320312 C 317.886719 335.746094 318.035156 335.164062 318.152344 334.578125 C 318.269531 333.992188 318.359375 333.398438 318.417969 332.804688 C 318.476562 332.207031 318.507812 331.613281 318.507812 331.011719 L 318.507812 106.359375 C 318.507812 105.761719 318.476562 105.164062 318.417969 104.566406 C 318.359375 103.972656 318.269531 103.378906 318.152344 102.792969 C 318.035156 102.207031 317.886719 101.625 317.714844 101.054688 C 317.539062 100.480469 317.335938 99.917969 317.105469 99.363281 C 316.878906 98.8125 316.621094 98.269531 316.339844 97.742188 C 316.054688 97.214844 315.746094 96.703125 315.414062 96.203125 C 315.078125 95.707031 314.722656 95.226562 314.34375 94.765625 C 313.960938 94.300781 313.558594 93.859375 313.136719 93.433594 C 312.710938 93.011719 312.265625 92.609375 311.804688 92.230469 C 311.339844 91.851562 310.859375 91.492188 310.359375 91.160156 C 309.859375 90.828125 309.347656 90.519531 308.816406 90.238281 C 308.289062 89.957031 307.746094 89.699219 307.195312 89.46875 C 306.640625 89.242188 306.074219 89.039062 305.5 88.863281 C 304.925781 88.691406 304.347656 88.546875 303.757812 88.429688 C 303.167969 88.308594 302.578125 88.222656 301.980469 88.164062 C 301.382812 88.105469 300.785156 88.074219 300.183594 88.074219 Z M 130.046875 35.828125 L 245.21875 35.828125 L 245.21875 46.277344 L 130.046875 46.277344 Z M 109.109375 56.726562 L 266.15625 56.726562 L 266.15625 67.175781 L 109.109375 67.175781 Z M 88.167969 77.625 L 287.097656 77.625 L 287.097656 88.074219 L 88.167969 88.074219 Z M 308.039062 331.011719 C 308.035156 331.527344 307.988281 332.035156 307.886719 332.542969 C 307.785156 333.046875 307.636719 333.535156 307.4375 334.011719 C 307.242188 334.484375 307 334.9375 306.710938 335.363281 C 306.425781 335.792969 306.101562 336.1875 305.734375 336.550781 C 305.371094 336.914062 304.972656 337.242188 304.546875 337.527344 C 304.117188 337.8125 303.664062 338.054688 303.1875 338.25 C 302.710938 338.449219 302.222656 338.597656 301.714844 338.699219 C 301.210938 338.796875 300.699219 338.847656 300.183594 338.847656 L 75.078125 338.847656 C 74.566406 338.847656 74.054688 338.796875 73.546875 338.699219 C 73.042969 338.597656 72.550781 338.449219 72.074219 338.25 C 71.601562 338.054688 71.148438 337.8125 70.71875 337.527344 C 70.289062 337.242188 69.894531 336.914062 69.53125 336.550781 C 69.164062 336.1875 68.839844 335.792969 68.554688 335.363281 C 68.265625 334.9375 68.023438 334.484375 67.828125 334.011719 C 67.628906 333.535156 67.480469 333.046875 67.378906 332.542969 C 67.277344 332.035156 67.226562 331.527344 67.226562 331.011719 L 67.226562 106.359375 C 67.226562 105.84375 67.277344 105.335938 67.378906 104.832031 C 67.480469 104.324219 67.628906 103.835938 67.828125 103.359375 C 68.023438 102.886719 68.265625 102.433594 68.554688 102.007812 C 68.839844 101.578125 69.164062 101.183594 69.53125 100.820312 C 69.894531 100.457031 70.289062 100.128906 70.71875 99.84375 C 71.148438 99.558594 71.601562 99.316406 72.074219 99.121094 C 72.550781 98.921875 73.042969 98.773438 73.546875 98.671875 C 74.054688 98.574219 74.566406 98.523438 75.078125 98.523438 L 300.183594 98.523438 C 300.699219 98.523438 301.210938 98.574219 301.714844 98.671875 C 302.222656 98.773438 302.710938 98.921875 303.1875 99.121094 C 303.664062 99.316406 304.117188 99.558594 304.546875 99.84375 C 304.972656 100.128906 305.371094 100.457031 305.734375 100.820312 C 306.101562 101.183594 306.425781 101.578125 306.710938 102.007812 C 307 102.433594 307.242188 102.886719 307.4375 103.359375 C 307.636719 103.835938 307.785156 104.324219 307.886719 104.832031 C 307.988281 105.335938 308.035156 105.84375 308.039062 106.359375 Z M 308.039062 331.011719 " fill-opacity="1" fill-rule="nonzero"/></g><path fill="#000000" d="M 245.21875 129.867188 L 130.046875 129.867188 C 129.019531 129.871094 127.992188 129.921875 126.96875 130.023438 C 125.945312 130.125 124.929688 130.277344 123.921875 130.476562 C 122.914062 130.679688 121.917969 130.929688 120.933594 131.226562 C 119.949219 131.523438 118.984375 131.871094 118.03125 132.265625 C 117.082031 132.65625 116.15625 133.097656 115.246094 133.582031 C 114.339844 134.066406 113.460938 134.59375 112.605469 135.164062 C 111.75 135.734375 110.925781 136.34375 110.128906 136.996094 C 109.335938 137.644531 108.574219 138.335938 107.847656 139.0625 C 107.121094 139.785156 106.429688 140.546875 105.777344 141.339844 C 105.125 142.132812 104.511719 142.957031 103.941406 143.808594 C 103.371094 144.660156 102.839844 145.542969 102.355469 146.445312 C 101.871094 147.351562 101.433594 148.277344 101.039062 149.226562 C 100.644531 150.171875 100.296875 151.136719 99.996094 152.121094 C 99.699219 153.101562 99.449219 154.097656 99.246094 155.101562 C 99.046875 156.109375 98.894531 157.125 98.792969 158.144531 C 98.691406 159.164062 98.636719 160.191406 98.636719 161.214844 L 98.636719 276.15625 C 98.636719 277.183594 98.691406 278.207031 98.792969 279.226562 C 98.894531 280.25 99.046875 281.261719 99.246094 282.269531 C 99.449219 283.273438 99.699219 284.269531 99.996094 285.25 C 100.296875 286.234375 100.644531 287.199219 101.039062 288.144531 C 101.433594 289.09375 101.871094 290.019531 102.355469 290.925781 C 102.839844 291.832031 103.371094 292.710938 103.941406 293.5625 C 104.511719 294.414062 105.125 295.238281 105.777344 296.03125 C 106.429688 296.824219 107.121094 297.585938 107.847656 298.3125 C 108.574219 299.035156 109.335938 299.726562 110.128906 300.375 C 110.925781 301.027344 111.75 301.636719 112.605469 302.207031 C 113.460938 302.777344 114.339844 303.304688 115.246094 303.789062 C 116.15625 304.273438 117.082031 304.714844 118.03125 305.105469 C 118.984375 305.5 119.949219 305.847656 120.933594 306.144531 C 121.917969 306.445312 122.914062 306.691406 123.921875 306.894531 C 124.929688 307.09375 125.945312 307.246094 126.96875 307.347656 C 127.992188 307.449219 129.019531 307.5 130.046875 307.503906 L 245.21875 307.503906 C 246.246094 307.5 247.273438 307.449219 248.296875 307.347656 C 249.320312 307.246094 250.335938 307.09375 251.34375 306.894531 C 252.351562 306.691406 253.347656 306.445312 254.332031 306.144531 C 255.316406 305.847656 256.28125 305.5 257.230469 305.105469 C 258.183594 304.714844 259.109375 304.273438 260.015625 303.789062 C 260.925781 303.304688 261.804688 302.777344 262.660156 302.207031 C 263.515625 301.636719 264.339844 301.027344 265.132812 300.375 C 265.929688 299.726562 266.691406 299.035156 267.417969 298.3125 C 268.144531 297.585938 268.835938 296.824219 269.488281 296.03125 C 270.140625 295.238281 270.75 294.414062 271.324219 293.5625 C 271.894531 292.710938 272.421875 291.832031 272.910156 290.925781 C 273.394531 290.019531 273.832031 289.09375 274.226562 288.144531 C 274.621094 287.199219 274.96875 286.234375 275.265625 285.25 C 275.566406 284.269531 275.816406 283.273438 276.019531 282.269531 C 276.21875 281.261719 276.371094 280.25 276.472656 279.226562 C 276.574219 278.207031 276.625 277.183594 276.628906 276.15625 L 276.628906 161.214844 C 276.625 160.191406 276.574219 159.164062 276.472656 158.144531 C 276.371094 157.125 276.21875 156.109375 276.019531 155.101562 C 275.816406 154.097656 275.566406 153.101562 275.265625 152.121094 C 274.96875 151.136719 274.621094 150.171875 274.226562 149.226562 C 273.832031 148.277344 273.394531 147.351562 272.910156 146.445312 C 272.421875 145.542969 271.894531 144.660156 271.324219 143.808594 C 270.75 142.957031 270.140625 142.132812 269.488281 141.339844 C 268.835938 140.546875 268.144531 139.785156 267.417969 139.0625 C 266.691406 138.335938 265.929688 137.644531 265.132812 136.996094 C 264.339844 136.34375 263.515625 135.734375 262.660156 135.164062 C 261.804688 134.59375 260.925781 134.066406 260.015625 133.582031 C 259.109375 133.097656 258.183594 132.65625 257.230469 132.265625 C 256.28125 131.871094 255.316406 131.523438 254.332031 131.226562 C 253.347656 130.929688 252.351562 130.679688 251.34375 130.476562 C 250.335938 130.277344 249.320312 130.125 248.296875 130.023438 C 247.273438 129.921875 246.246094 129.871094 245.21875 129.867188 Z M 266.15625 276.15625 C 266.15625 276.839844 266.121094 277.523438 266.054688 278.203125 C 265.988281 278.882812 265.886719 279.558594 265.75 280.230469 C 265.617188 280.902344 265.449219 281.5625 265.25 282.21875 C 265.050781 282.875 264.820312 283.515625 264.558594 284.148438 C 264.292969 284.78125 264 285.398438 263.679688 286.003906 C 263.355469 286.605469 263.003906 287.191406 262.621094 287.761719 C 262.238281 288.328125 261.832031 288.878906 261.398438 289.40625 C 260.960938 289.933594 260.503906 290.441406 260.015625 290.925781 C 259.53125 291.410156 259.023438 291.867188 258.496094 292.300781 C 257.964844 292.738281 257.414062 293.144531 256.84375 293.523438 C 256.277344 293.90625 255.6875 294.257812 255.082031 294.578125 C 254.480469 294.902344 253.859375 295.195312 253.226562 295.457031 C 252.59375 295.71875 251.949219 295.949219 251.292969 296.148438 C 250.636719 296.347656 249.972656 296.515625 249.300781 296.648438 C 248.628906 296.78125 247.953125 296.882812 247.269531 296.949219 C 246.585938 297.019531 245.902344 297.050781 245.21875 297.054688 L 130.046875 297.054688 C 129.363281 297.050781 128.679688 297.019531 127.996094 296.949219 C 127.3125 296.882812 126.636719 296.78125 125.964844 296.648438 C 125.292969 296.515625 124.628906 296.347656 123.972656 296.148438 C 123.316406 295.949219 122.671875 295.71875 122.039062 295.457031 C 121.40625 295.195312 120.785156 294.902344 120.179688 294.578125 C 119.578125 294.257812 118.988281 293.90625 118.417969 293.523438 C 117.847656 293.144531 117.300781 292.738281 116.769531 292.300781 C 116.238281 291.867188 115.730469 291.410156 115.246094 290.925781 C 114.761719 290.441406 114.304688 289.933594 113.867188 289.40625 C 113.433594 288.878906 113.023438 288.328125 112.644531 287.761719 C 112.261719 287.191406 111.910156 286.605469 111.585938 286.003906 C 111.261719 285.398438 110.96875 284.78125 110.707031 284.148438 C 110.445312 283.515625 110.214844 282.875 110.015625 282.21875 C 109.816406 281.5625 109.648438 280.902344 109.515625 280.230469 C 109.378906 279.558594 109.277344 278.882812 109.210938 278.203125 C 109.140625 277.523438 109.109375 276.839844 109.109375 276.15625 L 109.109375 161.214844 C 109.109375 160.53125 109.140625 159.847656 109.210938 159.167969 C 109.277344 158.488281 109.378906 157.8125 109.515625 157.140625 C 109.648438 156.46875 109.816406 155.808594 110.015625 155.152344 C 110.214844 154.496094 110.445312 153.855469 110.707031 153.222656 C 110.96875 152.589844 111.261719 151.972656 111.585938 151.371094 C 111.910156 150.765625 112.261719 150.179688 112.644531 149.613281 C 113.023438 149.042969 113.433594 148.492188 113.867188 147.964844 C 114.304688 147.4375 114.761719 146.929688 115.246094 146.445312 C 115.730469 145.960938 116.238281 145.503906 116.769531 145.070312 C 117.300781 144.636719 117.847656 144.226562 118.417969 143.847656 C 118.988281 143.46875 119.578125 143.117188 120.179688 142.792969 C 120.785156 142.46875 121.40625 142.175781 122.039062 141.914062 C 122.671875 141.652344 123.316406 141.421875 123.972656 141.222656 C 124.628906 141.023438 125.292969 140.859375 125.964844 140.722656 C 126.636719 140.589844 127.3125 140.488281 127.996094 140.421875 C 128.679688 140.351562 129.363281 140.320312 130.046875 140.316406 L 245.21875 140.316406 C 245.902344 140.320312 246.585938 140.351562 247.269531 140.421875 C 247.953125 140.488281 248.628906 140.589844 249.300781 140.722656 C 249.972656 140.859375 250.636719 141.023438 251.292969 141.222656 C 251.949219 141.421875 252.59375 141.652344 253.226562 141.914062 C 253.859375 142.175781 254.480469 142.46875 255.082031 142.792969 C 255.6875 143.117188 256.277344 143.46875 256.84375 143.847656 C 257.414062 144.226562 257.964844 144.636719 258.496094 145.070312 C 259.023438 145.503906 259.53125 145.960938 260.015625 146.445312 C 260.503906 146.929688 260.960938 147.4375 261.398438 147.964844 C 261.832031 148.492188 262.238281 149.042969 262.621094 149.613281 C 263.003906 150.179688 263.355469 150.765625 263.679688 151.371094 C 264 151.972656 264.292969 152.589844 264.558594 153.222656 C 264.820312 153.855469 265.050781 154.496094 265.25 155.152344 C 265.449219 155.808594 265.617188 156.46875 265.75 157.140625 C 265.886719 157.8125 265.988281 158.488281 266.054688 159.167969 C 266.121094 159.847656 266.15625 160.53125 266.15625 161.214844 Z M 266.15625 276.15625 " fill-opacity="1" fill-rule="nonzero"/><path fill="#000000" d="M 191.335938 157.523438 C 190.96875 157.15625 190.558594 156.851562 190.101562 156.609375 C 189.644531 156.363281 189.160156 156.191406 188.652344 156.09375 C 188.144531 155.992188 187.632812 155.964844 187.121094 156.015625 C 186.605469 156.066406 186.105469 156.191406 185.628906 156.390625 C 185.152344 156.585938 184.710938 156.851562 184.3125 157.175781 C 183.910156 157.503906 183.566406 157.882812 183.28125 158.3125 C 182.992188 158.742188 182.773438 159.207031 182.621094 159.699219 C 182.472656 160.195312 182.398438 160.699219 182.398438 161.214844 L 182.398438 239.597656 C 181.617188 239.015625 180.808594 238.476562 179.96875 237.984375 C 179.128906 237.492188 178.265625 237.046875 177.375 236.648438 C 176.484375 236.253906 175.578125 235.90625 174.648438 235.613281 C 173.71875 235.316406 172.777344 235.074219 171.824219 234.882812 C 170.867188 234.691406 169.90625 234.554688 168.933594 234.472656 C 167.964844 234.390625 166.992188 234.363281 166.015625 234.386719 C 165.042969 234.414062 164.074219 234.492188 163.109375 234.625 C 162.144531 234.757812 161.1875 234.945312 160.246094 235.1875 C 159.300781 235.425781 158.375 235.71875 157.460938 236.0625 C 156.550781 236.40625 155.660156 236.796875 154.792969 237.238281 C 153.925781 237.683594 153.085938 238.171875 152.273438 238.707031 C 151.460938 239.246094 150.679688 239.824219 149.933594 240.445312 C 149.183594 241.070312 148.472656 241.734375 147.800781 242.433594 C 147.125 243.136719 146.496094 243.875 145.902344 244.648438 C 145.3125 245.421875 144.765625 246.222656 144.265625 247.058594 C 143.761719 247.890625 143.308594 248.75 142.90625 249.636719 C 142.5 250.519531 142.144531 251.421875 141.84375 252.347656 C 141.539062 253.269531 141.285156 254.207031 141.089844 255.160156 C 140.890625 256.113281 140.742188 257.074219 140.652344 258.039062 C 140.5625 259.007812 140.523438 259.976562 140.542969 260.949219 C 140.558594 261.921875 140.628906 262.890625 140.753906 263.855469 C 140.878906 264.820312 141.058594 265.773438 141.292969 266.71875 C 141.523438 267.660156 141.808594 268.589844 142.144531 269.503906 C 142.480469 270.414062 142.867188 271.304688 143.300781 272.175781 C 143.738281 273.046875 144.222656 273.886719 144.75 274.703125 C 145.28125 275.519531 145.855469 276.304688 146.472656 277.054688 C 147.09375 277.804688 147.75 278.519531 148.449219 279.199219 C 149.144531 279.878906 149.878906 280.515625 150.648438 281.113281 C 151.417969 281.707031 152.21875 282.261719 153.050781 282.765625 C 153.878906 283.273438 154.738281 283.734375 155.621094 284.144531 C 156.503906 284.558594 157.40625 284.917969 158.328125 285.230469 C 159.25 285.542969 160.1875 285.800781 161.140625 286.007812 C 162.09375 286.214844 163.054688 286.367188 164.023438 286.464844 C 164.992188 286.566406 165.964844 286.613281 166.9375 286.601562 C 167.910156 286.59375 168.882812 286.53125 169.847656 286.414062 C 170.816406 286.296875 171.773438 286.128906 172.722656 285.902344 C 173.671875 285.679688 174.601562 285.402344 175.519531 285.078125 C 176.4375 284.75 177.332031 284.371094 178.207031 283.945312 C 179.082031 283.515625 179.929688 283.042969 180.753906 282.519531 C 181.574219 281.996094 182.367188 281.429688 183.125 280.820312 C 183.882812 280.210938 184.605469 279.558594 185.289062 278.871094 C 185.976562 278.179688 186.621094 277.453125 187.226562 276.6875 C 187.828125 275.925781 188.390625 275.132812 188.90625 274.308594 C 189.421875 273.484375 189.886719 272.632812 190.308594 271.753906 C 190.726562 270.878906 191.097656 269.980469 191.417969 269.0625 C 191.738281 268.144531 192.003906 267.210938 192.21875 266.261719 C 192.4375 265.3125 192.597656 264.355469 192.707031 263.390625 C 192.8125 262.421875 192.867188 261.453125 192.867188 260.480469 L 192.867188 173.828125 L 225.8125 206.707031 C 226.054688 206.949219 226.320312 207.164062 226.605469 207.355469 C 226.890625 207.542969 227.191406 207.703125 227.507812 207.835938 C 227.828125 207.964844 228.152344 208.066406 228.492188 208.132812 C 228.828125 208.199219 229.167969 208.230469 229.511719 208.230469 C 229.855469 208.230469 230.195312 208.195312 230.53125 208.128906 C 230.867188 208.0625 231.195312 207.964844 231.511719 207.832031 C 231.828125 207.699219 232.128906 207.539062 232.414062 207.347656 C 232.699219 207.160156 232.964844 206.941406 233.207031 206.699219 C 233.449219 206.457031 233.667969 206.195312 233.859375 205.910156 C 234.046875 205.625 234.210938 205.324219 234.339844 205.007812 C 234.472656 204.691406 234.574219 204.363281 234.640625 204.027344 C 234.707031 203.691406 234.742188 203.351562 234.742188 203.011719 C 234.742188 202.667969 234.707031 202.328125 234.640625 201.992188 C 234.574219 201.65625 234.476562 201.328125 234.34375 201.011719 C 234.214844 200.695312 234.054688 200.394531 233.863281 200.109375 C 233.671875 199.824219 233.457031 199.5625 233.214844 199.316406 Z M 166.691406 276.15625 C 165.660156 276.15625 164.640625 276.054688 163.628906 275.855469 C 162.617188 275.652344 161.636719 275.355469 160.683594 274.960938 C 159.730469 274.570312 158.824219 274.085938 157.96875 273.515625 C 157.109375 272.941406 156.316406 272.292969 155.585938 271.566406 C 154.859375 270.835938 154.207031 270.046875 153.632812 269.191406 C 153.0625 268.332031 152.578125 267.429688 152.183594 266.480469 C 151.789062 265.527344 151.492188 264.550781 151.289062 263.539062 C 151.089844 262.53125 150.988281 261.511719 150.988281 260.480469 C 150.988281 259.453125 151.089844 258.433594 151.289062 257.425781 C 151.492188 256.414062 151.789062 255.433594 152.183594 254.484375 C 152.578125 253.53125 153.0625 252.628906 153.632812 251.773438 C 154.207031 250.917969 154.859375 250.125 155.585938 249.398438 C 156.316406 248.671875 157.109375 248.023438 157.96875 247.449219 C 158.824219 246.878906 159.730469 246.394531 160.683594 246 C 161.636719 245.609375 162.617188 245.308594 163.628906 245.109375 C 164.640625 244.910156 165.660156 244.808594 166.691406 244.808594 C 167.722656 244.808594 168.746094 244.910156 169.757812 245.109375 C 170.769531 245.308594 171.75 245.609375 172.703125 246 C 173.65625 246.394531 174.558594 246.878906 175.417969 247.449219 C 176.273438 248.023438 177.070312 248.671875 177.796875 249.398438 C 178.527344 250.125 179.179688 250.917969 179.75 251.773438 C 180.324219 252.628906 180.808594 253.53125 181.203125 254.484375 C 181.597656 255.433594 181.894531 256.414062 182.09375 257.425781 C 182.296875 258.433594 182.398438 259.453125 182.398438 260.480469 C 182.394531 261.511719 182.292969 262.53125 182.09375 263.539062 C 181.890625 264.546875 181.59375 265.527344 181.195312 266.476562 C 180.800781 267.425781 180.316406 268.328125 179.746094 269.183594 C 179.171875 270.039062 178.519531 270.832031 177.792969 271.558594 C 177.0625 272.285156 176.269531 272.9375 175.414062 273.507812 C 174.554688 274.078125 173.652344 274.5625 172.699219 274.957031 C 171.746094 275.351562 170.765625 275.648438 169.753906 275.851562 C 168.746094 276.050781 167.722656 276.152344 166.691406 276.15625 Z M 166.691406 276.15625 " fill-opacity="1" fill-rule="nonzero"/></svg>