<svg xmlns="http://www.w3.org/2000/svg" xmlns:xlink="http://www.w3.org/1999/xlink" width="500" zoomAndPan="magnify" viewBox="0 0 375 374.999991" height="500" preserveAspectRatio="xMidYMid meet" version="1.0"><defs><clipPath id="051a9d3911"><path d="M 42.703125 42 L 332.203125 42 L 332.203125 333 L 42.703125 333 Z M 42.703125 42 " clip-rule="nonzero"/></clipPath></defs><rect x="-37.5" width="450" fill="#ffffff" y="-37.499999" height="449.999989" fill-opacity="1"/><rect x="-37.5" width="450" fill="#ffffff" y="-37.499999" height="449.999989" fill-opacity="1"/><g clip-path="url(#051a9d3911)"><path fill="#000000" d="M 318.617188 161.601562 L 295.480469 157.992188 C 292.933594 148.738281 289.34375 140.050781 284.800781 132.140625 L 298.558594 113.179688 C 303.214844 106.734375 302.585938 97.960938 297.050781 92.304688 L 282.683594 77.839844 C 276.984375 72.179688 268.15625 71.527344 261.710938 76.285156 L 242.957031 90.070312 C 234.921875 85.433594 226.238281 81.808594 217.101562 79.273438 L 213.554688 56.246094 C 212.324219 48.335938 205.652344 42.589844 197.6875 42.589844 L 177.316406 42.589844 C 169.347656 42.589844 162.636719 48.332031 161.351562 56.25 L 157.84375 79.273438 C 148.714844 81.808594 140.027344 85.433594 131.996094 90.070312 L 113.246094 76.285156 C 106.777344 71.511719 97.976562 72.164062 92.3125 77.851562 L 78 92.300781 C 72.375 97.941406 71.679688 106.71875 76.351562 113.183594 L 90.152344 132.144531 C 85.507812 140.21875 81.933594 148.902344 79.511719 157.992188 L 56.4375 161.597656 C 48.515625 162.78125 42.765625 169.488281 42.765625 177.554688 L 42.765625 197.945312 C 42.765625 205.902344 48.507812 212.613281 56.433594 213.902344 L 79.589844 217.417969 C 80.964844 222.863281 82.8125 228.171875 85.089844 233.199219 C 86.589844 236.589844 88.292969 239.925781 90.289062 243.359375 L 76.457031 262.261719 C 71.707031 268.628906 72.351562 277.429688 78.003906 283.207031 L 92.3125 297.507812 C 97.835938 303.113281 106.804688 303.828125 113.152344 299.167969 L 131.910156 285.332031 C 140.273438 290.132812 148.992188 293.765625 157.84375 296.144531 L 161.355469 319.269531 C 162.648438 327.148438 169.355469 332.863281 177.316406 332.863281 L 197.6875 332.863281 C 205.640625 332.863281 212.3125 327.144531 213.554688 319.257812 L 217.101562 296.144531 C 225.992188 293.746094 234.703125 290.113281 243.046875 285.332031 L 261.765625 299.175781 C 268.160156 303.832031 277.121094 303.109375 282.585938 297.519531 L 296.953125 283.203125 C 302.601562 277.542969 303.269531 268.742188 298.550781 262.265625 L 284.628906 243.367188 C 286.585938 240.046875 288.34375 236.628906 289.863281 233.199219 C 292.101562 228.148438 293.953125 222.84375 295.351562 217.417969 L 318.636719 213.902344 C 326.464844 212.609375 332.140625 205.898438 332.140625 197.945312 L 332.140625 177.554688 C 332.140625 169.496094 326.449219 162.785156 318.617188 161.601562 M 257.238281 246.761719 C 239.808594 267.425781 214.398438 279.273438 187.507812 279.273438 C 160.800781 279.273438 135.515625 267.59375 118.136719 247.238281 C 104.03125 230.789062 96.261719 209.660156 96.261719 187.742188 C 96.261719 137.273438 137.191406 96.214844 187.507812 96.214844 C 237.765625 96.214844 278.644531 137.273438 278.644531 187.742188 C 278.644531 209.285156 271.042969 230.246094 257.238281 246.761719 " fill-opacity="1" fill-rule="nonzero"/></g><path fill="#000000" d="M 187.472656 112.742188 C 146.246094 112.742188 112.703125 146.371094 112.703125 187.703125 C 112.703125 206.257812 119.53125 224.089844 131.9375 237.910156 C 146.144531 253.671875 166.390625 262.710938 187.472656 262.710938 C 208.578125 262.710938 228.820312 253.652344 243.011719 237.859375 C 255.390625 224.078125 262.203125 206.261719 262.203125 187.703125 C 262.203125 146.371094 228.683594 112.742188 187.472656 112.742188 M 187.460938 143.988281 C 203.945312 143.988281 217.296875 157.382812 217.296875 173.917969 C 217.296875 190.453125 203.945312 203.886719 187.460938 203.886719 C 170.972656 203.886719 157.625 190.453125 157.625 173.917969 C 157.625 157.382812 170.972656 143.988281 187.460938 143.988281 M 237.929688 233.285156 C 225.007812 247.628906 206.652344 255.851562 187.472656 255.851562 C 168.339844 255.851562 149.9375 247.628906 137.015625 233.332031 C 135.785156 231.960938 134.597656 230.546875 133.453125 229.039062 C 139.027344 213.691406 153.273438 203.003906 169.984375 202.269531 C 175.054688 205.46875 181.082031 207.300781 187.472656 207.300781 C 193.910156 207.300781 199.894531 205.46875 204.960938 202.269531 C 221.675781 203.003906 235.921875 213.691406 241.445312 229.039062 C 240.351562 230.5 239.164062 231.914062 237.929688 233.285156 " fill-opacity="1" fill-rule="nonzero"/></svg>