<svg xmlns="http://www.w3.org/2000/svg" xmlns:xlink="http://www.w3.org/1999/xlink" width="500" zoomAndPan="magnify" viewBox="0 0 375 374.999991" height="500" preserveAspectRatio="xMidYMid meet" version="1.0"><defs><clipPath id="74477cfea1"><path d="M 66.835938 63.105469 L 307 63.105469 L 307 312.105469 L 66.835938 312.105469 Z M 66.835938 63.105469 " clip-rule="nonzero"/></clipPath></defs><rect x="-37.5" width="450" fill="#ffffff" y="-37.499999" height="449.999989" fill-opacity="1"/><rect x="-37.5" width="450" fill="#ffffff" y="-37.499999" height="449.999989" fill-opacity="1"/><g clip-path="url(#74477cfea1)"><path fill="#000000" d="M 303.359375 292.132812 L 243.710938 234.820312 C 261.429688 215.863281 271.136719 191.277344 271.136719 165.195312 C 271.136719 139.113281 260.503906 112.296875 241.238281 93.007812 C 221.949219 73.71875 196.316406 63.105469 169.054688 63.105469 C 141.796875 63.105469 116.160156 73.71875 96.875 93.007812 C 77.589844 112.296875 66.976562 137.933594 66.976562 165.195312 C 66.976562 192.457031 77.589844 218.097656 96.875 237.386719 C 116.160156 256.675781 141.796875 267.289062 169.054688 267.289062 C 189.617188 267.289062 209.234375 261.253906 225.917969 250.011719 L 287.230469 308.910156 C 289.40625 310.996094 292.269531 312.160156 295.292969 312.160156 C 298.320312 312.160156 301.515625 310.847656 303.691406 308.578125 C 308.140625 303.945312 307.992188 296.5625 303.359375 292.113281 Z M 213.902344 232.21875 C 201.078125 240.820312 185.667969 245.839844 169.054688 245.839844 C 124.523438 245.839844 88.441406 209.734375 88.441406 165.214844 C 88.441406 120.695312 124.523438 84.570312 169.054688 84.570312 C 213.589844 84.570312 249.671875 120.675781 249.671875 165.195312 C 249.671875 187.273438 240.792969 207.28125 226.417969 221.84375 C 222.617188 225.703125 218.40625 229.191406 213.886719 232.21875 Z M 213.902344 232.21875 " fill-opacity="1" fill-rule="nonzero"/></g></svg>